<svg width="23" height="20" viewBox="0 0 23 20" fill="none" xmlns="http://www.w3.org/2000/svg">
<path d="M1.51239 9.17801C7.41798 6.60511 11.356 4.90877 13.3264 4.08927C18.9522 1.74929 20.1211 1.34284 20.8831 1.32923C21.0506 1.32641 21.4252 1.36801 21.6681 1.56491C21.8729 1.73114 21.9293 1.95582 21.9564 2.11353C21.9834 2.27111 22.0169 2.63039 21.9902 2.91103C21.6854 6.11423 20.3662 13.8877 19.6951 17.4753C19.4111 18.9934 18.8519 19.5025 18.3106 19.5522C17.1343 19.6605 16.2409 18.7748 15.1015 18.0279C13.3185 16.8592 12.3113 16.1315 10.5806 14.9911C8.58054 13.673 9.87717 12.9487 11.017 11.7648C11.3153 11.455 16.4986 6.74041 16.5989 6.31264C16.6115 6.25916 16.6231 6.05978 16.5047 5.95446C16.3861 5.84927 16.2114 5.88529 16.0852 5.91389C15.9064 5.95446 13.0581 7.83711 7.54036 11.5617C6.73186 12.1169 5.99953 12.3874 5.34352 12.3732C4.62013 12.3576 3.2288 11.9642 2.19447 11.628C0.925824 11.2156 -0.0824769 10.9975 0.00533056 10.2973C0.0510631 9.93247 0.553406 9.55929 1.51239 9.17801Z" fill="black"/>
</svg>
