<svg width="15" height="15" viewBox="0 0 15 15" fill="none" xmlns="http://www.w3.org/2000/svg">
<path d="M1.89368 6.63799C5.38335 5.11764 7.71035 4.11526 8.87467 3.63101C12.199 2.2483 12.8897 2.00812 13.34 2.00008C13.439 1.99841 13.6604 2.02299 13.8039 2.13934C13.9249 2.23757 13.9582 2.37033 13.9742 2.46353C13.9902 2.55664 14.01 2.76895 13.9942 2.93478C13.8141 4.82758 13.0346 9.42096 12.638 11.5409C12.4702 12.438 12.1398 12.7388 11.8199 12.7682C11.1248 12.8322 10.5969 12.3088 9.9236 11.8675C8.87003 11.1769 8.27488 10.7469 7.25218 10.073C6.07032 9.29413 6.83651 8.86611 7.51007 8.16654C7.6863 7.98349 10.7492 5.19759 10.8084 4.94482C10.8159 4.91321 10.8227 4.7954 10.7528 4.73316C10.6827 4.67101 10.5795 4.6923 10.5049 4.7092C10.3992 4.73316 8.71615 5.84564 5.45567 8.04654C4.97792 8.37463 4.54518 8.53445 4.15753 8.52608C3.73008 8.51681 2.90793 8.28436 2.29673 8.0857C1.54708 7.84203 0.951264 7.71317 1.00315 7.29936C1.03017 7.08381 1.32701 6.8633 1.89368 6.63799Z" fill="#1D98DC"/>
</svg>
